<svg width="324" height="189" viewBox="0 0 324 189" fill="none" xmlns="http://www.w3.org/2000/svg">
<g filter="url(#filter0_d_64_231)">
<rect x="4" width="316" height="181" rx="32" fill="white"/>
<path d="M162.092 31.0995C160.517 31.0995 159.046 31.8166 157.792 32.9911C156.538 34.1657 155.465 35.8017 154.57 37.7833C154.383 38.1984 154.204 38.6298 154.033 39.0749C153.571 39.0016 153.107 38.9414 152.642 38.8943C152.101 38.8404 151.574 38.8069 151.061 38.7949C149.521 38.7584 148.114 38.9145 146.881 39.2882C145.237 39.7867 143.881 40.7023 143.093 42.0661C142.306 43.4301 142.191 45.0627 142.582 46.7357C142.972 48.4087 143.852 50.1561 145.121 51.9218C145.387 52.2921 145.672 52.6635 145.972 53.0349C145.678 53.3974 145.395 53.7682 145.122 54.1468C143.853 55.9124 142.973 57.6598 142.583 59.3328C142.192 61.0059 142.307 62.6385 143.094 64.0022C143.882 65.3663 145.239 66.2818 146.883 66.78C148.527 67.2786 150.48 67.3901 152.643 67.174C153.097 67.1286 153.56 67.0681 154.032 66.9938C154.199 67.4301 154.379 67.8616 154.57 68.2877C155.465 70.2696 156.538 71.9053 157.792 73.0799C159.046 74.2544 160.517 74.9717 162.092 74.9717C163.666 74.9717 165.138 74.2544 166.391 73.0799C167.645 71.9052 168.718 70.2695 169.613 68.2877C169.805 67.8617 169.984 67.4302 170.152 66.994C170.622 67.068 171.085 67.1287 171.538 67.174C173.702 67.39 175.656 67.2785 177.299 66.78C178.944 66.2817 180.3 65.3661 181.088 64.0022C181.875 62.6382 181.99 61.0058 181.599 59.3328C181.209 57.6599 180.329 55.9125 179.06 54.1468C178.787 53.7683 178.504 53.3975 178.21 53.0349C178.504 52.672 178.788 52.3009 179.061 51.9219C180.33 50.1562 181.21 48.4088 181.6 46.7358C181.991 45.0628 181.876 43.4302 181.089 42.0661C180.301 40.7024 178.945 39.7868 177.301 39.2883C176.068 38.9146 174.661 38.7585 173.121 38.7949C172.608 38.8069 172.08 38.8404 171.539 38.8943C171.086 38.9397 170.622 39.0005 170.15 39.0748C169.983 38.6393 169.804 38.2086 169.612 37.7833C168.718 35.8014 167.645 34.1655 166.391 32.991C165.137 31.8165 163.666 31.0994 162.091 31.0994L162.092 31.0995ZM162.092 32.8514C163.142 32.8514 164.172 33.3129 165.193 34.2698C166.215 35.2265 167.19 36.6748 168.016 38.5042C168.15 38.8027 168.278 39.1041 168.399 39.4082C166.391 39.8547 164.265 40.5396 162.091 41.4548C159.918 40.5398 157.792 39.8551 155.784 39.4086C155.908 39.0983 156.036 38.7959 156.167 38.5041C156.993 36.6746 157.969 35.2263 158.99 34.2694C160.011 33.3127 161.041 32.8512 162.092 32.8512L162.092 32.8514ZM150.505 40.5442C150.674 40.5425 150.846 40.5436 151.021 40.5476C151.486 40.5579 151.969 40.5879 152.468 40.6379C152.788 40.6697 153.114 40.7105 153.446 40.7586C152.828 42.7205 152.358 44.9044 152.064 47.2442C150.184 48.6692 148.527 50.1687 147.137 51.6845C146.933 51.4271 146.736 51.1653 146.544 50.8991C145.372 49.2691 144.606 47.7003 144.288 46.3374C143.97 44.9745 144.085 43.8518 144.611 42.9421C145.136 42.0323 146.051 41.3711 147.39 40.9651C148.269 40.6985 149.321 40.5549 150.505 40.5441L150.505 40.5442ZM173.677 40.5442C174.861 40.555 175.914 40.6986 176.792 40.9651C178.132 41.3711 179.046 42.0323 179.571 42.9421C180.097 43.8518 180.212 44.9746 179.894 46.3374C179.576 47.7002 178.81 49.2691 177.638 50.8991C177.446 51.1653 177.249 51.4272 177.045 51.6847C175.655 50.1691 173.999 48.67 172.12 47.2452C171.826 44.905 171.355 42.7208 170.738 40.7586C171.069 40.7105 171.395 40.6696 171.714 40.6379C172.195 40.5891 172.678 40.559 173.162 40.5475C173.333 40.5436 173.505 40.5424 173.677 40.544V40.5442ZM168.997 41.073C169.463 42.5203 169.849 44.1172 170.137 45.8261C169.207 45.1978 168.255 44.6026 167.282 44.0416C166.311 43.4804 165.32 42.9537 164.311 42.4625C165.935 41.8574 167.511 41.3931 168.997 41.0731V41.073ZM155.186 41.0732C156.672 41.3933 158.248 41.8576 159.871 42.4626C158.862 42.9538 157.871 43.4805 156.9 44.0416C155.928 44.6023 154.977 45.1972 154.047 45.8251C154.335 44.1166 154.72 42.5202 155.186 41.0732ZM162.091 43.3664C163.517 43.9952 164.964 44.7261 166.406 45.559C167.85 46.3922 169.207 47.2802 170.464 48.2009C170.633 49.7503 170.723 51.3694 170.723 53.0356C170.723 54.7007 170.633 56.3192 170.465 57.868C169.207 58.7884 167.85 59.6762 166.407 60.5093C164.965 61.3423 163.517 62.0734 162.091 62.7023C160.665 62.0734 159.218 61.3423 157.775 60.5093C156.332 59.6765 154.976 58.789 153.719 57.8689C153.55 56.3199 153.46 54.7011 153.46 53.0355C153.46 51.3691 153.55 49.7497 153.719 48.2001C154.976 47.2798 156.333 46.3919 157.776 45.559C159.218 44.7262 160.666 43.9952 162.091 43.3666V43.3664ZM162.21 46.0022L157.194 49.0976L162.21 52.1932L167.225 49.0976L162.21 46.0021V46.0022ZM151.826 49.6711C151.747 50.7907 151.708 51.9128 151.708 53.0353C151.708 54.1788 151.748 55.3014 151.826 56.3975C150.49 55.2941 149.3 54.1616 148.28 53.0344C149.3 51.9074 150.49 50.7747 151.826 49.6711ZM172.358 49.672C173.693 50.7754 174.883 51.9076 175.903 53.0345C174.883 54.1614 173.693 55.2936 172.358 56.3968C172.436 55.278 172.476 54.1569 172.475 53.0354C172.475 51.8912 172.435 50.7685 172.357 49.672H172.358ZM156.064 50.4589V56.5712L161.332 59.8222V53.7102L156.064 50.4589ZM168.351 50.4621L163.084 53.7124V59.8216L168.351 56.5712V50.4621H168.351ZM147.137 54.3846C148.527 55.9006 150.184 57.3996 152.063 58.8246C152.358 61.1641 152.828 63.3479 153.445 65.3098C153.114 65.3576 152.788 65.3985 152.469 65.4304C150.472 65.6298 148.73 65.5092 147.391 65.1032C146.052 64.6973 145.137 64.0358 144.612 63.126C144.087 62.2162 143.971 61.0935 144.289 59.7307C144.607 58.3679 145.374 56.799 146.545 55.169C146.736 54.9032 146.934 54.6417 147.137 54.3846ZM177.045 54.3849C177.252 54.6474 177.45 54.909 177.637 55.169C178.808 56.7989 179.575 58.3678 179.893 59.7306C180.211 61.0935 180.096 62.2161 179.57 63.126C179.045 64.0357 178.13 64.6972 176.791 65.1031C175.452 65.5091 173.71 65.6297 171.713 65.4303C171.387 65.3973 171.062 65.3571 170.738 65.3099C171.356 63.3475 171.826 61.1633 172.12 58.8233C173.999 57.3987 175.655 55.9 177.045 54.3847L177.045 54.3849ZM170.137 60.2427C169.849 61.9514 169.464 63.5483 168.998 64.9955C167.511 64.6755 165.936 64.211 164.312 63.606C165.321 63.1145 166.312 62.5877 167.284 62.0265C168.255 61.4656 169.207 60.8706 170.137 60.2427H170.137ZM154.046 60.2436C154.976 60.8713 155.927 61.4659 156.899 62.0265C157.87 62.5877 158.862 63.1145 159.87 63.606C158.247 64.2109 156.672 64.6754 155.185 64.9953C154.72 63.5484 154.334 61.9518 154.046 60.2436ZM162.144 60.3233L162.207 60.3627L162.271 60.3233H162.144H162.144ZM162.091 64.614C164.265 65.529 166.392 66.2138 168.4 66.6601C168.279 66.9651 168.151 67.2674 168.016 67.5667C167.19 69.396 166.215 70.8442 165.193 71.8011C164.172 72.7579 163.142 73.2195 162.092 73.2195C161.041 73.2195 160.011 72.7579 158.99 71.8011C157.969 70.8443 156.993 69.396 156.167 67.5666C156.033 67.2673 155.905 66.965 155.783 66.66C157.791 66.2136 159.918 65.5289 162.091 64.614H162.091Z" fill="#2B7FFF"/>
<path d="M46.5996 97.0146H43.3564L43.3389 95.6523H46.2832C46.7695 95.6523 47.1943 95.5703 47.5576 95.4062C47.9209 95.2422 48.2021 95.0078 48.4014 94.7031C48.6064 94.3926 48.709 94.0234 48.709 93.5957C48.709 93.127 48.6182 92.7461 48.4365 92.4531C48.2607 92.1543 47.9883 91.9375 47.6191 91.8027C47.2559 91.6621 46.793 91.5918 46.2305 91.5918H43.7344V103H42.0381V90.2031H46.2305C46.8867 90.2031 47.4727 90.2705 47.9883 90.4053C48.5039 90.5342 48.9404 90.7393 49.2979 91.0205C49.6611 91.2959 49.9365 91.6475 50.124 92.0752C50.3115 92.5029 50.4053 93.0156 50.4053 93.6133C50.4053 94.1406 50.2705 94.6182 50.001 95.0459C49.7314 95.4678 49.3564 95.8135 48.876 96.083C48.4014 96.3525 47.8447 96.5254 47.2061 96.6016L46.5996 97.0146ZM46.5205 103H42.6885L43.6465 101.62H46.5205C47.0596 101.62 47.5166 101.526 47.8916 101.339C48.2725 101.151 48.5625 100.888 48.7617 100.548C48.9609 100.202 49.0605 99.7949 49.0605 99.3262C49.0605 98.8516 48.9756 98.4414 48.8057 98.0957C48.6357 97.75 48.3691 97.4834 48.0059 97.2959C47.6426 97.1084 47.1738 97.0146 46.5996 97.0146H44.1826L44.2002 95.6523H47.5049L47.8652 96.1445C48.4805 96.1973 49.002 96.373 49.4297 96.6719C49.8574 96.9648 50.1826 97.3398 50.4053 97.7969C50.6338 98.2539 50.748 98.7578 50.748 99.3086C50.748 100.105 50.5723 100.779 50.2207 101.33C49.875 101.875 49.3857 102.291 48.7529 102.578C48.1201 102.859 47.376 103 46.5205 103ZM56.8125 101.84C57.1992 101.84 57.5566 101.761 57.8848 101.603C58.2129 101.444 58.4824 101.228 58.6934 100.952C58.9043 100.671 59.0244 100.352 59.0537 99.9941H60.6006C60.5713 100.557 60.3809 101.081 60.0293 101.567C59.6836 102.048 59.2295 102.438 58.667 102.736C58.1045 103.029 57.4863 103.176 56.8125 103.176C56.0977 103.176 55.4736 103.05 54.9404 102.798C54.4131 102.546 53.9736 102.2 53.6221 101.761C53.2764 101.321 53.0156 100.817 52.8398 100.249C52.6699 99.6748 52.585 99.0684 52.585 98.4297V98.0605C52.585 97.4219 52.6699 96.8184 52.8398 96.25C53.0156 95.6758 53.2764 95.1689 53.6221 94.7295C53.9736 94.29 54.4131 93.9443 54.9404 93.6924C55.4736 93.4404 56.0977 93.3145 56.8125 93.3145C57.5566 93.3145 58.207 93.4668 58.7637 93.7715C59.3203 94.0703 59.7568 94.4805 60.0732 95.002C60.3955 95.5176 60.5713 96.1035 60.6006 96.7598H59.0537C59.0244 96.3672 58.9131 96.0127 58.7197 95.6963C58.5322 95.3799 58.2744 95.1279 57.9463 94.9404C57.624 94.7471 57.2461 94.6504 56.8125 94.6504C56.3145 94.6504 55.8955 94.75 55.5557 94.9492C55.2217 95.1426 54.9551 95.4062 54.7559 95.7402C54.5625 96.0684 54.4219 96.4346 54.334 96.8389C54.252 97.2373 54.2109 97.6445 54.2109 98.0605V98.4297C54.2109 98.8457 54.252 99.2559 54.334 99.6602C54.416 100.064 54.5537 100.431 54.7471 100.759C54.9463 101.087 55.2129 101.351 55.5469 101.55C55.8867 101.743 56.3086 101.84 56.8125 101.84ZM64.1953 93.4902V103H62.5605V93.4902H64.1953ZM62.4375 90.9678C62.4375 90.7041 62.5166 90.4814 62.6748 90.2998C62.8389 90.1182 63.0791 90.0273 63.3955 90.0273C63.7061 90.0273 63.9434 90.1182 64.1074 90.2998C64.2773 90.4814 64.3623 90.7041 64.3623 90.9678C64.3623 91.2197 64.2773 91.4365 64.1074 91.6182C63.9434 91.7939 63.7061 91.8818 63.3955 91.8818C63.0791 91.8818 62.8389 91.7939 62.6748 91.6182C62.5166 91.4365 62.4375 91.2197 62.4375 90.9678ZM77.7217 97.6123V98.9307H72.6943V97.6123H77.7217ZM73.0371 93.4902V103H71.4111V93.4902H73.0371ZM79.04 93.4902V103H77.4053V93.4902H79.04ZM87.2666 101.374V96.4785C87.2666 96.1035 87.1904 95.7783 87.0381 95.5029C86.8916 95.2217 86.6689 95.0049 86.3701 94.8525C86.0713 94.7002 85.7021 94.624 85.2627 94.624C84.8525 94.624 84.4922 94.6943 84.1816 94.835C83.877 94.9756 83.6367 95.1602 83.4609 95.3887C83.291 95.6172 83.2061 95.8633 83.2061 96.127H81.5801C81.5801 95.7871 81.668 95.4502 81.8438 95.1162C82.0195 94.7822 82.2715 94.4805 82.5996 94.2109C82.9336 93.9355 83.332 93.7188 83.7949 93.5605C84.2637 93.3965 84.7852 93.3145 85.3594 93.3145C86.0508 93.3145 86.6602 93.4316 87.1875 93.666C87.7207 93.9004 88.1367 94.2549 88.4355 94.7295C88.7402 95.1982 88.8926 95.7871 88.8926 96.4961V100.926C88.8926 101.242 88.9189 101.579 88.9717 101.937C89.0303 102.294 89.1152 102.602 89.2266 102.859V103H87.5303C87.4482 102.812 87.3838 102.563 87.3369 102.253C87.29 101.937 87.2666 101.644 87.2666 101.374ZM87.5479 97.2344L87.5654 98.377H85.9219C85.459 98.377 85.0459 98.415 84.6826 98.4912C84.3193 98.5615 84.0146 98.6699 83.7686 98.8164C83.5225 98.9629 83.335 99.1475 83.2061 99.3701C83.0771 99.5869 83.0127 99.8418 83.0127 100.135C83.0127 100.434 83.0801 100.706 83.2148 100.952C83.3496 101.198 83.5518 101.395 83.8213 101.541C84.0967 101.682 84.4336 101.752 84.832 101.752C85.3301 101.752 85.7695 101.646 86.1504 101.436C86.5312 101.225 86.833 100.967 87.0557 100.662C87.2842 100.357 87.4072 100.062 87.4248 99.7744L88.1191 100.557C88.0781 100.803 87.9668 101.075 87.7852 101.374C87.6035 101.673 87.3604 101.96 87.0557 102.235C86.7568 102.505 86.3994 102.73 85.9834 102.912C85.5732 103.088 85.1104 103.176 84.5947 103.176C83.9502 103.176 83.3848 103.05 82.8984 102.798C82.418 102.546 82.043 102.209 81.7734 101.787C81.5098 101.359 81.3779 100.882 81.3779 100.354C81.3779 99.8447 81.4775 99.3965 81.6768 99.0098C81.876 98.6172 82.1631 98.292 82.5381 98.0342C82.9131 97.7705 83.3643 97.5713 83.8916 97.4365C84.4189 97.3018 85.0078 97.2344 85.6582 97.2344H87.5479ZM91.5908 93.4902H93.2168V101.664H96.6973V93.4902H98.332V101.664H101.804V93.4902H103.43V103H91.5908V93.4902ZM107.789 93.4902V103H106.154V93.4902H107.789ZM106.031 90.9678C106.031 90.7041 106.11 90.4814 106.269 90.2998C106.433 90.1182 106.673 90.0273 106.989 90.0273C107.3 90.0273 107.537 90.1182 107.701 90.2998C107.871 90.4814 107.956 90.7041 107.956 90.9678C107.956 91.2197 107.871 91.4365 107.701 91.6182C107.537 91.7939 107.3 91.8818 106.989 91.8818C106.673 91.8818 106.433 91.7939 106.269 91.6182C106.11 91.4365 106.031 91.2197 106.031 90.9678ZM116.631 93.4902V103H115.005V93.4902H116.631ZM122.871 93.4902L118.362 98.9395H116.086L115.84 97.5156H117.703L120.894 93.4902H122.871ZM121.122 103L117.624 98.6934L118.67 97.5156L123.188 103H121.122ZM123.979 98.3506V98.1484C123.979 97.4629 124.078 96.8271 124.277 96.2412C124.477 95.6494 124.764 95.1367 125.139 94.7031C125.514 94.2637 125.968 93.9238 126.501 93.6836C127.034 93.4375 127.632 93.3145 128.294 93.3145C128.962 93.3145 129.562 93.4375 130.096 93.6836C130.635 93.9238 131.092 94.2637 131.467 94.7031C131.848 95.1367 132.138 95.6494 132.337 96.2412C132.536 96.8271 132.636 97.4629 132.636 98.1484V98.3506C132.636 99.0361 132.536 99.6719 132.337 100.258C132.138 100.844 131.848 101.356 131.467 101.796C131.092 102.229 130.638 102.569 130.104 102.815C129.577 103.056 128.979 103.176 128.312 103.176C127.644 103.176 127.043 103.056 126.51 102.815C125.977 102.569 125.52 102.229 125.139 101.796C124.764 101.356 124.477 100.844 124.277 100.258C124.078 99.6719 123.979 99.0361 123.979 98.3506ZM125.604 98.1484V98.3506C125.604 98.8252 125.66 99.2734 125.771 99.6953C125.883 100.111 126.05 100.48 126.272 100.803C126.501 101.125 126.785 101.38 127.125 101.567C127.465 101.749 127.86 101.84 128.312 101.84C128.757 101.84 129.146 101.749 129.48 101.567C129.82 101.38 130.102 101.125 130.324 100.803C130.547 100.48 130.714 100.111 130.825 99.6953C130.942 99.2734 131.001 98.8252 131.001 98.3506V98.1484C131.001 97.6797 130.942 97.2373 130.825 96.8213C130.714 96.3994 130.544 96.0273 130.315 95.7051C130.093 95.377 129.812 95.1191 129.472 94.9316C129.138 94.7441 128.745 94.6504 128.294 94.6504C127.849 94.6504 127.456 94.7441 127.116 94.9316C126.782 95.1191 126.501 95.377 126.272 95.7051C126.05 96.0273 125.883 96.3994 125.771 96.8213C125.66 97.2373 125.604 97.6797 125.604 98.1484ZM138.48 101.84C138.867 101.84 139.225 101.761 139.553 101.603C139.881 101.444 140.15 101.228 140.361 100.952C140.572 100.671 140.692 100.352 140.722 99.9941H142.269C142.239 100.557 142.049 101.081 141.697 101.567C141.352 102.048 140.897 102.438 140.335 102.736C139.772 103.029 139.154 103.176 138.48 103.176C137.766 103.176 137.142 103.05 136.608 102.798C136.081 102.546 135.642 102.2 135.29 101.761C134.944 101.321 134.684 100.817 134.508 100.249C134.338 99.6748 134.253 99.0684 134.253 98.4297V98.0605C134.253 97.4219 134.338 96.8184 134.508 96.25C134.684 95.6758 134.944 95.1689 135.29 94.7295C135.642 94.29 136.081 93.9443 136.608 93.6924C137.142 93.4404 137.766 93.3145 138.48 93.3145C139.225 93.3145 139.875 93.4668 140.432 93.7715C140.988 94.0703 141.425 94.4805 141.741 95.002C142.063 95.5176 142.239 96.1035 142.269 96.7598H140.722C140.692 96.3672 140.581 96.0127 140.388 95.6963C140.2 95.3799 139.942 95.1279 139.614 94.9404C139.292 94.7471 138.914 94.6504 138.48 94.6504C137.982 94.6504 137.563 94.75 137.224 94.9492C136.89 95.1426 136.623 95.4062 136.424 95.7402C136.23 96.0684 136.09 96.4346 136.002 96.8389C135.92 97.2373 135.879 97.6445 135.879 98.0605V98.4297C135.879 98.8457 135.92 99.2559 136.002 99.6602C136.084 100.064 136.222 100.431 136.415 100.759C136.614 101.087 136.881 101.351 137.215 101.55C137.555 101.743 137.977 101.84 138.48 101.84ZM149.563 100.838L152.798 93.4902H154.362L150.126 103H149.001L144.782 93.4902H146.347L149.563 100.838ZM145.872 93.4902V103H144.246V93.4902H145.872ZM153.202 103V93.4902H154.837V103H153.202ZM161.402 103.176C160.74 103.176 160.14 103.064 159.601 102.842C159.067 102.613 158.607 102.294 158.221 101.884C157.84 101.474 157.547 100.987 157.342 100.425C157.137 99.8623 157.034 99.2471 157.034 98.5791V98.21C157.034 97.4365 157.148 96.748 157.377 96.1445C157.605 95.5352 157.916 95.0195 158.309 94.5977C158.701 94.1758 159.146 93.8564 159.645 93.6396C160.143 93.4229 160.658 93.3145 161.191 93.3145C161.871 93.3145 162.457 93.4316 162.949 93.666C163.447 93.9004 163.854 94.2285 164.171 94.6504C164.487 95.0664 164.722 95.5586 164.874 96.127C165.026 96.6895 165.103 97.3047 165.103 97.9727V98.7021H158.001V97.375H163.477V97.252C163.453 96.8301 163.365 96.4199 163.213 96.0215C163.066 95.623 162.832 95.2949 162.51 95.0371C162.188 94.7793 161.748 94.6504 161.191 94.6504C160.822 94.6504 160.482 94.7295 160.172 94.8877C159.861 95.04 159.595 95.2686 159.372 95.5732C159.149 95.8779 158.977 96.25 158.854 96.6895C158.73 97.1289 158.669 97.6357 158.669 98.21V98.5791C158.669 99.0303 158.73 99.4551 158.854 99.8535C158.982 100.246 159.167 100.592 159.407 100.891C159.653 101.189 159.949 101.424 160.295 101.594C160.646 101.764 161.045 101.849 161.49 101.849C162.064 101.849 162.551 101.731 162.949 101.497C163.348 101.263 163.696 100.949 163.995 100.557L164.979 101.339C164.774 101.649 164.514 101.945 164.197 102.227C163.881 102.508 163.491 102.736 163.028 102.912C162.571 103.088 162.029 103.176 161.402 103.176ZM170.771 93.4902V103H169.137V93.4902H170.771ZM173.962 93.4902V94.8086H166.008V93.4902H173.962ZM174.762 98.3506V98.1484C174.762 97.4629 174.861 96.8271 175.061 96.2412C175.26 95.6494 175.547 95.1367 175.922 94.7031C176.297 94.2637 176.751 93.9238 177.284 93.6836C177.817 93.4375 178.415 93.3145 179.077 93.3145C179.745 93.3145 180.346 93.4375 180.879 93.6836C181.418 93.9238 181.875 94.2637 182.25 94.7031C182.631 95.1367 182.921 95.6494 183.12 96.2412C183.319 96.8271 183.419 97.4629 183.419 98.1484V98.3506C183.419 99.0361 183.319 99.6719 183.12 100.258C182.921 100.844 182.631 101.356 182.25 101.796C181.875 102.229 181.421 102.569 180.888 102.815C180.36 103.056 179.763 103.176 179.095 103.176C178.427 103.176 177.826 103.056 177.293 102.815C176.76 102.569 176.303 102.229 175.922 101.796C175.547 101.356 175.26 100.844 175.061 100.258C174.861 99.6719 174.762 99.0361 174.762 98.3506ZM176.388 98.1484V98.3506C176.388 98.8252 176.443 99.2734 176.555 99.6953C176.666 100.111 176.833 100.48 177.056 100.803C177.284 101.125 177.568 101.38 177.908 101.567C178.248 101.749 178.644 101.84 179.095 101.84C179.54 101.84 179.93 101.749 180.264 101.567C180.604 101.38 180.885 101.125 181.107 100.803C181.33 100.48 181.497 100.111 181.608 99.6953C181.726 99.2734 181.784 98.8252 181.784 98.3506V98.1484C181.784 97.6797 181.726 97.2373 181.608 96.8213C181.497 96.3994 181.327 96.0273 181.099 95.7051C180.876 95.377 180.595 95.1191 180.255 94.9316C179.921 94.7441 179.528 94.6504 179.077 94.6504C178.632 94.6504 178.239 94.7441 177.899 94.9316C177.565 95.1191 177.284 95.377 177.056 95.7051C176.833 96.0273 176.666 96.3994 176.555 96.8213C176.443 97.2373 176.388 97.6797 176.388 98.1484ZM191.672 93.4902V94.835H187.075V93.4902H191.672ZM193.104 93.4902V103H191.479V93.4902H193.104ZM186.68 93.4902H188.314L188.068 98.0781C188.027 98.7871 187.96 99.4141 187.866 99.959C187.778 100.498 187.655 100.961 187.497 101.348C187.345 101.734 187.151 102.051 186.917 102.297C186.688 102.537 186.413 102.716 186.091 102.833C185.769 102.944 185.396 103 184.975 103H184.465V101.567L184.816 101.541C185.068 101.523 185.282 101.465 185.458 101.365C185.64 101.266 185.792 101.119 185.915 100.926C186.038 100.727 186.138 100.472 186.214 100.161C186.296 99.8506 186.357 99.4814 186.398 99.0537C186.445 98.626 186.48 98.1279 186.504 97.5596L186.68 93.4902ZM195.293 98.3506V98.1484C195.293 97.4629 195.393 96.8271 195.592 96.2412C195.791 95.6494 196.078 95.1367 196.453 94.7031C196.828 94.2637 197.282 93.9238 197.815 93.6836C198.349 93.4375 198.946 93.3145 199.608 93.3145C200.276 93.3145 200.877 93.4375 201.41 93.6836C201.949 93.9238 202.406 94.2637 202.781 94.7031C203.162 95.1367 203.452 95.6494 203.651 96.2412C203.851 96.8271 203.95 97.4629 203.95 98.1484V98.3506C203.95 99.0361 203.851 99.6719 203.651 100.258C203.452 100.844 203.162 101.356 202.781 101.796C202.406 102.229 201.952 102.569 201.419 102.815C200.892 103.056 200.294 103.176 199.626 103.176C198.958 103.176 198.357 103.056 197.824 102.815C197.291 102.569 196.834 102.229 196.453 101.796C196.078 101.356 195.791 100.844 195.592 100.258C195.393 99.6719 195.293 99.0361 195.293 98.3506ZM196.919 98.1484V98.3506C196.919 98.8252 196.975 99.2734 197.086 99.6953C197.197 100.111 197.364 100.48 197.587 100.803C197.815 101.125 198.1 101.38 198.439 101.567C198.779 101.749 199.175 101.84 199.626 101.84C200.071 101.84 200.461 101.749 200.795 101.567C201.135 101.38 201.416 101.125 201.639 100.803C201.861 100.48 202.028 100.111 202.14 99.6953C202.257 99.2734 202.315 98.8252 202.315 98.3506V98.1484C202.315 97.6797 202.257 97.2373 202.14 96.8213C202.028 96.3994 201.858 96.0273 201.63 95.7051C201.407 95.377 201.126 95.1191 200.786 94.9316C200.452 94.7441 200.06 94.6504 199.608 94.6504C199.163 94.6504 198.771 94.7441 198.431 94.9316C198.097 95.1191 197.815 95.377 197.587 95.7051C197.364 96.0273 197.197 96.3994 197.086 96.8213C196.975 97.2373 196.919 97.6797 196.919 98.1484ZM212.133 93.4902V94.835H207.738V103H206.112V93.4902H212.133ZM215.306 100.425L219.691 93.4902H221.326V103H219.691V96.0654L215.306 103H213.688V93.4902H215.306V100.425ZM233.868 100.838L237.103 93.4902H238.667L234.431 103H233.306L229.087 93.4902H230.651L233.868 100.838ZM230.177 93.4902V103H228.551V93.4902H230.177ZM237.507 103V93.4902H239.142V103H237.507ZM247.368 101.374V96.4785C247.368 96.1035 247.292 95.7783 247.14 95.5029C246.993 95.2217 246.771 95.0049 246.472 94.8525C246.173 94.7002 245.804 94.624 245.364 94.624C244.954 94.624 244.594 94.6943 244.283 94.835C243.979 94.9756 243.738 95.1602 243.562 95.3887C243.393 95.6172 243.308 95.8633 243.308 96.127H241.682C241.682 95.7871 241.77 95.4502 241.945 95.1162C242.121 94.7822 242.373 94.4805 242.701 94.2109C243.035 93.9355 243.434 93.7188 243.896 93.5605C244.365 93.3965 244.887 93.3145 245.461 93.3145C246.152 93.3145 246.762 93.4316 247.289 93.666C247.822 93.9004 248.238 94.2549 248.537 94.7295C248.842 95.1982 248.994 95.7871 248.994 96.4961V100.926C248.994 101.242 249.021 101.579 249.073 101.937C249.132 102.294 249.217 102.602 249.328 102.859V103H247.632C247.55 102.812 247.485 102.563 247.438 102.253C247.392 101.937 247.368 101.644 247.368 101.374ZM247.649 97.2344L247.667 98.377H246.023C245.561 98.377 245.147 98.415 244.784 98.4912C244.421 98.5615 244.116 98.6699 243.87 98.8164C243.624 98.9629 243.437 99.1475 243.308 99.3701C243.179 99.5869 243.114 99.8418 243.114 100.135C243.114 100.434 243.182 100.706 243.316 100.952C243.451 101.198 243.653 101.395 243.923 101.541C244.198 101.682 244.535 101.752 244.934 101.752C245.432 101.752 245.871 101.646 246.252 101.436C246.633 101.225 246.935 100.967 247.157 100.662C247.386 100.357 247.509 100.062 247.526 99.7744L248.221 100.557C248.18 100.803 248.068 101.075 247.887 101.374C247.705 101.673 247.462 101.96 247.157 102.235C246.858 102.505 246.501 102.73 246.085 102.912C245.675 103.088 245.212 103.176 244.696 103.176C244.052 103.176 243.486 103.05 243 102.798C242.52 102.546 242.145 102.209 241.875 101.787C241.611 101.359 241.479 100.882 241.479 100.354C241.479 99.8447 241.579 99.3965 241.778 99.0098C241.978 98.6172 242.265 98.292 242.64 98.0342C243.015 97.7705 243.466 97.5713 243.993 97.4365C244.521 97.3018 245.109 97.2344 245.76 97.2344H247.649ZM256.966 97.5244V98.8516H251.912V97.5244H256.966ZM253.327 93.4902V103H251.701V93.4902H253.327ZM255.577 98.3506V98.1484C255.577 97.4629 255.677 96.8271 255.876 96.2412C256.075 95.6494 256.362 95.1367 256.737 94.7031C257.118 94.2637 257.572 93.9238 258.1 93.6836C258.633 93.4375 259.23 93.3145 259.893 93.3145C260.566 93.3145 261.17 93.4375 261.703 93.6836C262.236 93.9238 262.69 94.2637 263.065 94.7031C263.446 95.1367 263.736 95.6494 263.936 96.2412C264.135 96.8271 264.234 97.4629 264.234 98.1484V98.3506C264.234 99.0361 264.135 99.6719 263.936 100.258C263.736 100.844 263.449 101.356 263.074 101.796C262.699 102.229 262.245 102.569 261.712 102.815C261.179 103.056 260.578 103.176 259.91 103.176C259.242 103.176 258.642 103.056 258.108 102.815C257.575 102.569 257.118 102.229 256.737 101.796C256.362 101.356 256.075 100.844 255.876 100.258C255.677 99.6719 255.577 99.0361 255.577 98.3506ZM257.212 98.1484V98.3506C257.212 98.8252 257.268 99.2734 257.379 99.6953C257.49 100.111 257.657 100.48 257.88 100.803C258.108 101.125 258.39 101.38 258.724 101.567C259.063 101.749 259.459 101.84 259.91 101.84C260.361 101.84 260.754 101.749 261.088 101.567C261.428 101.38 261.709 101.125 261.932 100.803C262.154 100.48 262.321 100.111 262.433 99.6953C262.55 99.2734 262.608 98.8252 262.608 98.3506V98.1484C262.608 97.6797 262.55 97.2373 262.433 96.8213C262.321 96.3994 262.151 96.0273 261.923 95.7051C261.7 95.377 261.419 95.1191 261.079 94.9316C260.739 94.7441 260.344 94.6504 259.893 94.6504C259.447 94.6504 259.058 94.7441 258.724 94.9316C258.39 95.1191 258.108 95.377 257.88 95.7051C257.657 96.0273 257.49 96.3994 257.379 96.8213C257.268 97.2373 257.212 97.6797 257.212 98.1484ZM270.123 93.4902V103H268.488V93.4902H270.123ZM273.313 93.4902V94.8086H265.359V93.4902H273.313ZM276.249 96.7598H279.105C279.873 96.7598 280.521 96.8945 281.048 97.1641C281.575 97.4277 281.974 97.7939 282.243 98.2627C282.519 98.7256 282.656 99.2529 282.656 99.8447C282.656 100.284 282.58 100.697 282.428 101.084C282.275 101.465 282.047 101.799 281.742 102.086C281.443 102.373 281.071 102.599 280.626 102.763C280.187 102.921 279.68 103 279.105 103H275.062V93.4902H276.688V101.664H279.105C279.574 101.664 279.949 101.579 280.23 101.409C280.512 101.239 280.714 101.02 280.837 100.75C280.96 100.48 281.021 100.199 281.021 99.9062C281.021 99.6191 280.96 99.3379 280.837 99.0625C280.714 98.7871 280.512 98.5586 280.23 98.377C279.949 98.1895 279.574 98.0957 279.105 98.0957H276.249V96.7598ZM76.6846 122.816H73.5645L73.5469 121.516H76.0957C76.5996 121.516 77.0186 121.466 77.3525 121.366C77.6924 121.267 77.9473 121.117 78.1172 120.918C78.2871 120.719 78.3721 120.473 78.3721 120.18C78.3721 119.951 78.3223 119.752 78.2227 119.582C78.1289 119.406 77.9854 119.263 77.792 119.151C77.5986 119.034 77.3584 118.949 77.0713 118.896C76.79 118.838 76.459 118.809 76.0781 118.809H73.9951V127H72.3691V117.49H76.0781C76.6816 117.49 77.2236 117.543 77.7041 117.648C78.1904 117.754 78.6035 117.915 78.9434 118.132C79.2891 118.343 79.5527 118.612 79.7344 118.94C79.916 119.269 80.0068 119.655 80.0068 120.101C80.0068 120.388 79.9482 120.66 79.8311 120.918C79.7139 121.176 79.541 121.404 79.3125 121.604C79.084 121.803 78.8027 121.967 78.4688 122.096C78.1348 122.219 77.751 122.298 77.3174 122.333L76.6846 122.816ZM76.6846 127H72.9756L73.7842 125.682H76.6846C77.1357 125.682 77.5107 125.626 77.8096 125.515C78.1084 125.397 78.3311 125.233 78.4775 125.022C78.6299 124.806 78.7061 124.548 78.7061 124.249C78.7061 123.95 78.6299 123.695 78.4775 123.484C78.3311 123.268 78.1084 123.104 77.8096 122.992C77.5107 122.875 77.1357 122.816 76.6846 122.816H74.2148L74.2324 121.516H77.3174L77.9062 122.008C78.4277 122.049 78.8701 122.178 79.2334 122.395C79.5967 122.611 79.8721 122.887 80.0596 123.221C80.2471 123.549 80.3408 123.906 80.3408 124.293C80.3408 124.738 80.2559 125.131 80.0859 125.471C79.9219 125.811 79.6816 126.095 79.3652 126.323C79.0488 126.546 78.665 126.716 78.2139 126.833C77.7627 126.944 77.2529 127 76.6846 127ZM84.2783 124.425L88.6641 117.49H90.2988V127H88.6641V120.065L84.2783 127H82.6611V117.49H84.2783V124.425ZM106.128 125.664L105.97 129.821H104.52V127H103.28V125.664H106.128ZM92.9531 117.49H94.5791V125.664H98.0596V117.49H99.6943V125.664H103.166V117.49H104.792V127H92.9531V117.49ZM110.487 126.016L113.133 117.49H114.873L111.059 128.468C110.971 128.702 110.854 128.954 110.707 129.224C110.566 129.499 110.385 129.76 110.162 130.006C109.939 130.252 109.67 130.451 109.354 130.604C109.043 130.762 108.671 130.841 108.237 130.841C108.108 130.841 107.944 130.823 107.745 130.788C107.546 130.753 107.405 130.724 107.323 130.7L107.314 129.382C107.361 129.388 107.435 129.394 107.534 129.399C107.64 129.411 107.713 129.417 107.754 129.417C108.123 129.417 108.437 129.367 108.694 129.268C108.952 129.174 109.169 129.013 109.345 128.784C109.526 128.562 109.682 128.254 109.811 127.861L110.487 126.016ZM108.545 117.49L111.015 124.873L111.437 126.587L110.268 127.185L106.77 117.49H108.545ZM126.272 124.838L129.507 117.49H131.071L126.835 127H125.71L121.491 117.49H123.056L126.272 124.838ZM122.581 117.49V127H120.955V117.49H122.581ZM129.911 127V117.49H131.546V127H129.911ZM138.111 127.176C137.449 127.176 136.849 127.064 136.31 126.842C135.776 126.613 135.316 126.294 134.93 125.884C134.549 125.474 134.256 124.987 134.051 124.425C133.846 123.862 133.743 123.247 133.743 122.579V122.21C133.743 121.437 133.857 120.748 134.086 120.145C134.314 119.535 134.625 119.02 135.018 118.598C135.41 118.176 135.855 117.856 136.354 117.64C136.852 117.423 137.367 117.314 137.9 117.314C138.58 117.314 139.166 117.432 139.658 117.666C140.156 117.9 140.563 118.229 140.88 118.65C141.196 119.066 141.431 119.559 141.583 120.127C141.735 120.689 141.812 121.305 141.812 121.973V122.702H134.71V121.375H140.186V121.252C140.162 120.83 140.074 120.42 139.922 120.021C139.775 119.623 139.541 119.295 139.219 119.037C138.896 118.779 138.457 118.65 137.9 118.65C137.531 118.65 137.191 118.729 136.881 118.888C136.57 119.04 136.304 119.269 136.081 119.573C135.858 119.878 135.686 120.25 135.562 120.689C135.439 121.129 135.378 121.636 135.378 122.21V122.579C135.378 123.03 135.439 123.455 135.562 123.854C135.691 124.246 135.876 124.592 136.116 124.891C136.362 125.189 136.658 125.424 137.004 125.594C137.355 125.764 137.754 125.849 138.199 125.849C138.773 125.849 139.26 125.731 139.658 125.497C140.057 125.263 140.405 124.949 140.704 124.557L141.688 125.339C141.483 125.649 141.223 125.945 140.906 126.227C140.59 126.508 140.2 126.736 139.737 126.912C139.28 127.088 138.738 127.176 138.111 127.176ZM145.424 117.49H147.05L146.909 121.05C146.874 121.952 146.771 122.731 146.602 123.388C146.432 124.044 146.215 124.604 145.951 125.066C145.688 125.523 145.392 125.907 145.063 126.218C144.741 126.528 144.407 126.789 144.062 127H143.253L143.297 125.673L143.631 125.664C143.824 125.436 144.012 125.201 144.193 124.961C144.375 124.715 144.542 124.425 144.694 124.091C144.847 123.751 144.973 123.338 145.072 122.852C145.178 122.359 145.245 121.759 145.274 121.05L145.424 117.49ZM145.828 117.49H151.55V127H149.924V118.993H145.828V117.49ZM142.884 125.664H152.771V129.804H151.146V127H144.51V129.804H142.875L142.884 125.664ZM156.331 124.425L160.717 117.49H162.352V127H160.717V120.065L156.331 127H154.714V117.49H156.331V124.425ZM172.134 117.49V127H170.508V117.49H172.134ZM171.58 121.858V123.194C171.252 123.317 170.918 123.429 170.578 123.528C170.244 123.622 169.89 123.698 169.515 123.757C169.146 123.81 168.744 123.836 168.311 123.836C167.561 123.836 166.91 123.707 166.359 123.449C165.809 123.186 165.384 122.79 165.085 122.263C164.786 121.729 164.637 121.059 164.637 120.25V117.473H166.263V120.25C166.263 120.777 166.342 121.205 166.5 121.533C166.658 121.861 166.89 122.104 167.194 122.263C167.499 122.415 167.871 122.491 168.311 122.491C168.732 122.491 169.128 122.465 169.497 122.412C169.872 122.354 170.229 122.277 170.569 122.184C170.915 122.09 171.252 121.981 171.58 121.858ZM181.204 121.612V122.931H176.177V121.612H181.204ZM176.52 117.49V127H174.894V117.49H176.52ZM182.522 117.49V127H180.888V117.49H182.522ZM187.813 126.016L190.459 117.49H192.199L188.385 128.468C188.297 128.702 188.18 128.954 188.033 129.224C187.893 129.499 187.711 129.76 187.488 130.006C187.266 130.252 186.996 130.451 186.68 130.604C186.369 130.762 185.997 130.841 185.563 130.841C185.435 130.841 185.271 130.823 185.071 130.788C184.872 130.753 184.731 130.724 184.649 130.7L184.641 129.382C184.688 129.388 184.761 129.394 184.86 129.399C184.966 129.411 185.039 129.417 185.08 129.417C185.449 129.417 185.763 129.367 186.021 129.268C186.278 129.174 186.495 129.013 186.671 128.784C186.853 128.562 187.008 128.254 187.137 127.861L187.813 126.016ZM185.871 117.49L188.341 124.873L188.763 126.587L187.594 127.185L184.096 117.49H185.871ZM197.701 122.351V122.148C197.701 121.463 197.801 120.827 198 120.241C198.199 119.649 198.486 119.137 198.861 118.703C199.236 118.264 199.69 117.924 200.224 117.684C200.757 117.438 201.354 117.314 202.017 117.314C202.685 117.314 203.285 117.438 203.818 117.684C204.357 117.924 204.814 118.264 205.189 118.703C205.57 119.137 205.86 119.649 206.06 120.241C206.259 120.827 206.358 121.463 206.358 122.148V122.351C206.358 123.036 206.259 123.672 206.06 124.258C205.86 124.844 205.57 125.356 205.189 125.796C204.814 126.229 204.36 126.569 203.827 126.815C203.3 127.056 202.702 127.176 202.034 127.176C201.366 127.176 200.766 127.056 200.232 126.815C199.699 126.569 199.242 126.229 198.861 125.796C198.486 125.356 198.199 124.844 198 124.258C197.801 123.672 197.701 123.036 197.701 122.351ZM199.327 122.148V122.351C199.327 122.825 199.383 123.273 199.494 123.695C199.605 124.111 199.772 124.48 199.995 124.803C200.224 125.125 200.508 125.38 200.848 125.567C201.188 125.749 201.583 125.84 202.034 125.84C202.479 125.84 202.869 125.749 203.203 125.567C203.543 125.38 203.824 125.125 204.047 124.803C204.27 124.48 204.437 124.111 204.548 123.695C204.665 123.273 204.724 122.825 204.724 122.351V122.148C204.724 121.68 204.665 121.237 204.548 120.821C204.437 120.399 204.267 120.027 204.038 119.705C203.815 119.377 203.534 119.119 203.194 118.932C202.86 118.744 202.468 118.65 202.017 118.65C201.571 118.65 201.179 118.744 200.839 118.932C200.505 119.119 200.224 119.377 199.995 119.705C199.772 120.027 199.605 120.399 199.494 120.821C199.383 121.237 199.327 121.68 199.327 122.148ZM212.203 125.84C212.59 125.84 212.947 125.761 213.275 125.603C213.604 125.444 213.873 125.228 214.084 124.952C214.295 124.671 214.415 124.352 214.444 123.994H215.991C215.962 124.557 215.771 125.081 215.42 125.567C215.074 126.048 214.62 126.438 214.058 126.736C213.495 127.029 212.877 127.176 212.203 127.176C211.488 127.176 210.864 127.05 210.331 126.798C209.804 126.546 209.364 126.2 209.013 125.761C208.667 125.321 208.406 124.817 208.23 124.249C208.061 123.675 207.976 123.068 207.976 122.43V122.061C207.976 121.422 208.061 120.818 208.23 120.25C208.406 119.676 208.667 119.169 209.013 118.729C209.364 118.29 209.804 117.944 210.331 117.692C210.864 117.44 211.488 117.314 212.203 117.314C212.947 117.314 213.598 117.467 214.154 117.771C214.711 118.07 215.147 118.48 215.464 119.002C215.786 119.518 215.962 120.104 215.991 120.76H214.444C214.415 120.367 214.304 120.013 214.11 119.696C213.923 119.38 213.665 119.128 213.337 118.94C213.015 118.747 212.637 118.65 212.203 118.65C211.705 118.65 211.286 118.75 210.946 118.949C210.612 119.143 210.346 119.406 210.146 119.74C209.953 120.068 209.812 120.435 209.725 120.839C209.643 121.237 209.602 121.645 209.602 122.061V122.43C209.602 122.846 209.643 123.256 209.725 123.66C209.807 124.064 209.944 124.431 210.138 124.759C210.337 125.087 210.604 125.351 210.938 125.55C211.277 125.743 211.699 125.84 212.203 125.84ZM222.284 122.816H219.164L219.146 121.516H221.695C222.199 121.516 222.618 121.466 222.952 121.366C223.292 121.267 223.547 121.117 223.717 120.918C223.887 120.719 223.972 120.473 223.972 120.18C223.972 119.951 223.922 119.752 223.822 119.582C223.729 119.406 223.585 119.263 223.392 119.151C223.198 119.034 222.958 118.949 222.671 118.896C222.39 118.838 222.059 118.809 221.678 118.809H219.595V127H217.969V117.49H221.678C222.281 117.49 222.823 117.543 223.304 117.648C223.79 117.754 224.203 117.915 224.543 118.132C224.889 118.343 225.152 118.612 225.334 118.94C225.516 119.269 225.606 119.655 225.606 120.101C225.606 120.388 225.548 120.66 225.431 120.918C225.313 121.176 225.141 121.404 224.912 121.604C224.684 121.803 224.402 121.967 224.068 122.096C223.734 122.219 223.351 122.298 222.917 122.333L222.284 122.816ZM222.284 127H218.575L219.384 125.682H222.284C222.735 125.682 223.11 125.626 223.409 125.515C223.708 125.397 223.931 125.233 224.077 125.022C224.229 124.806 224.306 124.548 224.306 124.249C224.306 123.95 224.229 123.695 224.077 123.484C223.931 123.268 223.708 123.104 223.409 122.992C223.11 122.875 222.735 122.816 222.284 122.816H219.814L219.832 121.516H222.917L223.506 122.008C224.027 122.049 224.47 122.178 224.833 122.395C225.196 122.611 225.472 122.887 225.659 123.221C225.847 123.549 225.94 123.906 225.94 124.293C225.94 124.738 225.855 125.131 225.686 125.471C225.521 125.811 225.281 126.095 224.965 126.323C224.648 126.546 224.265 126.716 223.813 126.833C223.362 126.944 222.853 127 222.284 127ZM229.887 117.49V127H228.252V117.49H229.887ZM228.129 114.968C228.129 114.704 228.208 114.481 228.366 114.3C228.53 114.118 228.771 114.027 229.087 114.027C229.397 114.027 229.635 114.118 229.799 114.3C229.969 114.481 230.054 114.704 230.054 114.968C230.054 115.22 229.969 115.437 229.799 115.618C229.635 115.794 229.397 115.882 229.087 115.882C228.771 115.882 228.53 115.794 228.366 115.618C228.208 115.437 228.129 115.22 228.129 114.968ZM236.373 117.49V127H234.738V117.49H236.373ZM239.563 117.49V118.809H231.609V117.49H239.563ZM243.94 126.016L246.586 117.49H248.326L244.512 128.468C244.424 128.702 244.307 128.954 244.16 129.224C244.02 129.499 243.838 129.76 243.615 130.006C243.393 130.252 243.123 130.451 242.807 130.604C242.496 130.762 242.124 130.841 241.69 130.841C241.562 130.841 241.397 130.823 241.198 130.788C240.999 130.753 240.858 130.724 240.776 130.7L240.768 129.382C240.814 129.388 240.888 129.394 240.987 129.399C241.093 129.411 241.166 129.417 241.207 129.417C241.576 129.417 241.89 129.367 242.147 129.268C242.405 129.174 242.622 129.013 242.798 128.784C242.979 128.562 243.135 128.254 243.264 127.861L243.94 126.016ZM241.998 117.49L244.468 124.873L244.89 126.587L243.721 127.185L240.223 117.49H241.998ZM56.0654 141.49V151H54.4307V141.49H56.0654ZM59.2559 141.49V142.809H51.3018V141.49H59.2559ZM66.3223 149.374V144.479C66.3223 144.104 66.2461 143.778 66.0938 143.503C65.9473 143.222 65.7246 143.005 65.4258 142.853C65.127 142.7 64.7578 142.624 64.3184 142.624C63.9082 142.624 63.5479 142.694 63.2373 142.835C62.9326 142.976 62.6924 143.16 62.5166 143.389C62.3467 143.617 62.2617 143.863 62.2617 144.127H60.6357C60.6357 143.787 60.7236 143.45 60.8994 143.116C61.0752 142.782 61.3271 142.48 61.6553 142.211C61.9893 141.936 62.3877 141.719 62.8506 141.561C63.3193 141.396 63.8408 141.314 64.415 141.314C65.1064 141.314 65.7158 141.432 66.2432 141.666C66.7764 141.9 67.1924 142.255 67.4912 142.729C67.7959 143.198 67.9482 143.787 67.9482 144.496V148.926C67.9482 149.242 67.9746 149.579 68.0273 149.937C68.0859 150.294 68.1709 150.602 68.2822 150.859V151H66.5859C66.5039 150.812 66.4395 150.563 66.3926 150.253C66.3457 149.937 66.3223 149.644 66.3223 149.374ZM66.6035 145.234L66.6211 146.377H64.9775C64.5146 146.377 64.1016 146.415 63.7383 146.491C63.375 146.562 63.0703 146.67 62.8242 146.816C62.5781 146.963 62.3906 147.147 62.2617 147.37C62.1328 147.587 62.0684 147.842 62.0684 148.135C62.0684 148.434 62.1357 148.706 62.2705 148.952C62.4053 149.198 62.6074 149.395 62.877 149.541C63.1523 149.682 63.4893 149.752 63.8877 149.752C64.3857 149.752 64.8252 149.646 65.2061 149.436C65.5869 149.225 65.8887 148.967 66.1113 148.662C66.3398 148.357 66.4629 148.062 66.4805 147.774L67.1748 148.557C67.1338 148.803 67.0225 149.075 66.8408 149.374C66.6592 149.673 66.416 149.96 66.1113 150.235C65.8125 150.505 65.4551 150.73 65.0391 150.912C64.6289 151.088 64.166 151.176 63.6504 151.176C63.0059 151.176 62.4404 151.05 61.9541 150.798C61.4736 150.546 61.0986 150.209 60.8291 149.787C60.5654 149.359 60.4336 148.882 60.4336 148.354C60.4336 147.845 60.5332 147.396 60.7324 147.01C60.9316 146.617 61.2188 146.292 61.5938 146.034C61.9688 145.771 62.4199 145.571 62.9473 145.437C63.4746 145.302 64.0635 145.234 64.7139 145.234H66.6035ZM78.7764 149.84C79.1631 149.84 79.5205 149.761 79.8486 149.603C80.1768 149.444 80.4463 149.228 80.6572 148.952C80.8682 148.671 80.9883 148.352 81.0176 147.994H82.5645C82.5352 148.557 82.3447 149.081 81.9932 149.567C81.6475 150.048 81.1934 150.438 80.6309 150.736C80.0684 151.029 79.4502 151.176 78.7764 151.176C78.0615 151.176 77.4375 151.05 76.9043 150.798C76.377 150.546 75.9375 150.2 75.5859 149.761C75.2402 149.321 74.9795 148.817 74.8037 148.249C74.6338 147.675 74.5488 147.068 74.5488 146.43V146.061C74.5488 145.422 74.6338 144.818 74.8037 144.25C74.9795 143.676 75.2402 143.169 75.5859 142.729C75.9375 142.29 76.377 141.944 76.9043 141.692C77.4375 141.44 78.0615 141.314 78.7764 141.314C79.5205 141.314 80.1709 141.467 80.7275 141.771C81.2842 142.07 81.7207 142.48 82.0371 143.002C82.3594 143.518 82.5352 144.104 82.5645 144.76H81.0176C80.9883 144.367 80.877 144.013 80.6836 143.696C80.4961 143.38 80.2383 143.128 79.9102 142.94C79.5879 142.747 79.21 142.65 78.7764 142.65C78.2783 142.65 77.8594 142.75 77.5195 142.949C77.1855 143.143 76.9189 143.406 76.7197 143.74C76.5264 144.068 76.3857 144.435 76.2979 144.839C76.2158 145.237 76.1748 145.645 76.1748 146.061V146.43C76.1748 146.846 76.2158 147.256 76.2979 147.66C76.3799 148.064 76.5176 148.431 76.7109 148.759C76.9102 149.087 77.1768 149.351 77.5107 149.55C77.8506 149.743 78.2725 149.84 78.7764 149.84ZM88.2686 141.49V151H86.6338V141.49H88.2686ZM91.459 141.49V142.809H83.5049V141.49H91.459ZM98.5254 149.374V144.479C98.5254 144.104 98.4492 143.778 98.2969 143.503C98.1504 143.222 97.9277 143.005 97.6289 142.853C97.3301 142.7 96.9609 142.624 96.5215 142.624C96.1113 142.624 95.751 142.694 95.4404 142.835C95.1357 142.976 94.8955 143.16 94.7197 143.389C94.5498 143.617 94.4648 143.863 94.4648 144.127H92.8389C92.8389 143.787 92.9268 143.45 93.1025 143.116C93.2783 142.782 93.5303 142.48 93.8584 142.211C94.1924 141.936 94.5908 141.719 95.0537 141.561C95.5225 141.396 96.0439 141.314 96.6182 141.314C97.3096 141.314 97.9189 141.432 98.4463 141.666C98.9795 141.9 99.3955 142.255 99.6943 142.729C99.999 143.198 100.151 143.787 100.151 144.496V148.926C100.151 149.242 100.178 149.579 100.23 149.937C100.289 150.294 100.374 150.602 100.485 150.859V151H98.7891C98.707 150.812 98.6426 150.563 98.5957 150.253C98.5488 149.937 98.5254 149.644 98.5254 149.374ZM98.8066 145.234L98.8242 146.377H97.1807C96.7178 146.377 96.3047 146.415 95.9414 146.491C95.5781 146.562 95.2734 146.67 95.0273 146.816C94.7812 146.963 94.5938 147.147 94.4648 147.37C94.3359 147.587 94.2715 147.842 94.2715 148.135C94.2715 148.434 94.3389 148.706 94.4736 148.952C94.6084 149.198 94.8105 149.395 95.0801 149.541C95.3555 149.682 95.6924 149.752 96.0908 149.752C96.5889 149.752 97.0283 149.646 97.4092 149.436C97.79 149.225 98.0918 148.967 98.3145 148.662C98.543 148.357 98.666 148.062 98.6836 147.774L99.3779 148.557C99.3369 148.803 99.2256 149.075 99.0439 149.374C98.8623 149.673 98.6191 149.96 98.3145 150.235C98.0156 150.505 97.6582 150.73 97.2422 150.912C96.832 151.088 96.3691 151.176 95.8535 151.176C95.209 151.176 94.6436 151.05 94.1572 150.798C93.6768 150.546 93.3018 150.209 93.0322 149.787C92.7686 149.359 92.6367 148.882 92.6367 148.354C92.6367 147.845 92.7363 147.396 92.9355 147.01C93.1348 146.617 93.4219 146.292 93.7969 146.034C94.1719 145.771 94.623 145.571 95.1504 145.437C95.6777 145.302 96.2666 145.234 96.917 145.234H98.8066ZM105.592 146.86L101.988 141.49H103.948L106.409 145.428H108.308L108.07 146.86H105.592ZM106.479 146.693L103.72 151H101.663L105.451 145.516L106.479 146.693ZM109.143 141.49V151H107.517V141.49H109.143ZM114.688 141.49L111.085 146.86H108.606L108.352 145.428H110.259L112.72 141.49H114.688ZM112.948 151L110.18 146.693L111.226 145.516L115.005 151H112.948ZM122.599 143.318V154.656H120.964V141.49H122.458L122.599 143.318ZM129.006 146.166V146.351C129.006 147.042 128.924 147.684 128.76 148.275C128.596 148.861 128.355 149.371 128.039 149.805C127.729 150.238 127.345 150.575 126.888 150.815C126.431 151.056 125.906 151.176 125.314 151.176C124.711 151.176 124.178 151.076 123.715 150.877C123.252 150.678 122.859 150.388 122.537 150.007C122.215 149.626 121.957 149.169 121.764 148.636C121.576 148.103 121.447 147.502 121.377 146.834V145.85C121.447 145.146 121.579 144.517 121.772 143.96C121.966 143.403 122.221 142.929 122.537 142.536C122.859 142.138 123.249 141.836 123.706 141.631C124.163 141.42 124.69 141.314 125.288 141.314C125.886 141.314 126.416 141.432 126.879 141.666C127.342 141.895 127.731 142.223 128.048 142.65C128.364 143.078 128.602 143.591 128.76 144.188C128.924 144.78 129.006 145.439 129.006 146.166ZM127.371 146.351V146.166C127.371 145.691 127.321 145.246 127.222 144.83C127.122 144.408 126.967 144.039 126.756 143.723C126.551 143.4 126.287 143.148 125.965 142.967C125.643 142.779 125.259 142.686 124.813 142.686C124.403 142.686 124.046 142.756 123.741 142.896C123.442 143.037 123.188 143.228 122.977 143.468C122.766 143.702 122.593 143.972 122.458 144.276C122.329 144.575 122.232 144.886 122.168 145.208V147.484C122.285 147.895 122.449 148.281 122.66 148.645C122.871 149.002 123.152 149.292 123.504 149.515C123.855 149.731 124.298 149.84 124.831 149.84C125.271 149.84 125.648 149.749 125.965 149.567C126.287 149.38 126.551 149.125 126.756 148.803C126.967 148.48 127.122 148.111 127.222 147.695C127.321 147.273 127.371 146.825 127.371 146.351ZM130.649 146.351V146.148C130.649 145.463 130.749 144.827 130.948 144.241C131.147 143.649 131.435 143.137 131.81 142.703C132.185 142.264 132.639 141.924 133.172 141.684C133.705 141.438 134.303 141.314 134.965 141.314C135.633 141.314 136.233 141.438 136.767 141.684C137.306 141.924 137.763 142.264 138.138 142.703C138.519 143.137 138.809 143.649 139.008 144.241C139.207 144.827 139.307 145.463 139.307 146.148V146.351C139.307 147.036 139.207 147.672 139.008 148.258C138.809 148.844 138.519 149.356 138.138 149.796C137.763 150.229 137.309 150.569 136.775 150.815C136.248 151.056 135.65 151.176 134.982 151.176C134.314 151.176 133.714 151.056 133.181 150.815C132.647 150.569 132.19 150.229 131.81 149.796C131.435 149.356 131.147 148.844 130.948 148.258C130.749 147.672 130.649 147.036 130.649 146.351ZM132.275 146.148V146.351C132.275 146.825 132.331 147.273 132.442 147.695C132.554 148.111 132.721 148.48 132.943 148.803C133.172 149.125 133.456 149.38 133.796 149.567C134.136 149.749 134.531 149.84 134.982 149.84C135.428 149.84 135.817 149.749 136.151 149.567C136.491 149.38 136.772 149.125 136.995 148.803C137.218 148.48 137.385 148.111 137.496 147.695C137.613 147.273 137.672 146.825 137.672 146.351V146.148C137.672 145.68 137.613 145.237 137.496 144.821C137.385 144.399 137.215 144.027 136.986 143.705C136.764 143.377 136.482 143.119 136.143 142.932C135.809 142.744 135.416 142.65 134.965 142.65C134.52 142.65 134.127 142.744 133.787 142.932C133.453 143.119 133.172 143.377 132.943 143.705C132.721 144.027 132.554 144.399 132.442 144.821C132.331 145.237 132.275 145.68 132.275 146.148ZM147.445 137.351H148.781C148.781 137.925 148.693 138.382 148.518 138.722C148.342 139.056 148.102 139.313 147.797 139.495C147.498 139.677 147.158 139.814 146.777 139.908C146.402 140.002 146.013 140.093 145.608 140.181C145.104 140.286 144.636 140.453 144.202 140.682C143.774 140.904 143.405 141.221 143.095 141.631C142.79 142.041 142.564 142.574 142.418 143.23C142.277 143.887 142.239 144.698 142.304 145.665V146.474H140.968V145.665C140.968 144.581 141.07 143.635 141.275 142.826C141.486 142.018 141.782 141.335 142.163 140.778C142.544 140.222 142.995 139.779 143.517 139.451C144.044 139.123 144.624 138.897 145.257 138.774C145.714 138.687 146.106 138.593 146.435 138.493C146.763 138.388 147.012 138.247 147.182 138.071C147.357 137.896 147.445 137.655 147.445 137.351ZM145.521 142.035C146.142 142.035 146.695 142.144 147.182 142.36C147.668 142.577 148.081 142.879 148.421 143.266C148.761 143.652 149.019 144.109 149.194 144.637C149.376 145.158 149.467 145.727 149.467 146.342V146.535C149.467 147.197 149.37 147.812 149.177 148.381C148.989 148.943 148.711 149.436 148.342 149.857C147.979 150.273 147.533 150.599 147.006 150.833C146.484 151.067 145.89 151.185 145.222 151.185C144.554 151.185 143.956 151.067 143.429 150.833C142.907 150.599 142.462 150.273 142.093 149.857C141.724 149.436 141.442 148.943 141.249 148.381C141.062 147.812 140.968 147.197 140.968 146.535V146.342C140.968 146.195 140.994 146.052 141.047 145.911C141.1 145.771 141.164 145.627 141.24 145.48C141.322 145.334 141.396 145.179 141.46 145.015C141.677 144.487 141.973 143.998 142.348 143.547C142.729 143.096 143.183 142.732 143.71 142.457C144.243 142.176 144.847 142.035 145.521 142.035ZM145.204 143.362C144.606 143.362 144.114 143.5 143.728 143.775C143.347 144.051 143.062 144.417 142.875 144.874C142.688 145.325 142.594 145.814 142.594 146.342V146.535C142.594 146.98 142.646 147.402 142.752 147.801C142.857 148.199 143.016 148.554 143.227 148.864C143.443 149.169 143.716 149.409 144.044 149.585C144.378 149.761 144.771 149.849 145.222 149.849C145.673 149.849 146.062 149.761 146.391 149.585C146.719 149.409 146.988 149.169 147.199 148.864C147.41 148.554 147.568 148.199 147.674 147.801C147.779 147.402 147.832 146.98 147.832 146.535V146.342C147.832 145.943 147.779 145.565 147.674 145.208C147.568 144.851 147.407 144.534 147.19 144.259C146.979 143.983 146.707 143.767 146.373 143.608C146.045 143.444 145.655 143.362 145.204 143.362ZM150.882 146.351V146.148C150.882 145.463 150.981 144.827 151.181 144.241C151.38 143.649 151.667 143.137 152.042 142.703C152.417 142.264 152.871 141.924 153.404 141.684C153.938 141.438 154.535 141.314 155.197 141.314C155.865 141.314 156.466 141.438 156.999 141.684C157.538 141.924 157.995 142.264 158.37 142.703C158.751 143.137 159.041 143.649 159.24 144.241C159.439 144.827 159.539 145.463 159.539 146.148V146.351C159.539 147.036 159.439 147.672 159.24 148.258C159.041 148.844 158.751 149.356 158.37 149.796C157.995 150.229 157.541 150.569 157.008 150.815C156.48 151.056 155.883 151.176 155.215 151.176C154.547 151.176 153.946 151.056 153.413 150.815C152.88 150.569 152.423 150.229 152.042 149.796C151.667 149.356 151.38 148.844 151.181 148.258C150.981 147.672 150.882 147.036 150.882 146.351ZM152.508 146.148V146.351C152.508 146.825 152.563 147.273 152.675 147.695C152.786 148.111 152.953 148.48 153.176 148.803C153.404 149.125 153.688 149.38 154.028 149.567C154.368 149.749 154.764 149.84 155.215 149.84C155.66 149.84 156.05 149.749 156.384 149.567C156.724 149.38 157.005 149.125 157.228 148.803C157.45 148.48 157.617 148.111 157.729 147.695C157.846 147.273 157.904 146.825 157.904 146.351V146.148C157.904 145.68 157.846 145.237 157.729 144.821C157.617 144.399 157.447 144.027 157.219 143.705C156.996 143.377 156.715 143.119 156.375 142.932C156.041 142.744 155.648 142.65 155.197 142.65C154.752 142.65 154.359 142.744 154.02 142.932C153.686 143.119 153.404 143.377 153.176 143.705C152.953 144.027 152.786 144.399 152.675 144.821C152.563 145.237 152.508 145.68 152.508 146.148ZM165.261 141.49V151H163.626V141.49H165.261ZM168.451 141.49V142.809H160.497V141.49H168.451ZM171.809 148.425L176.194 141.49H177.829V151H176.194V144.065L171.809 151H170.191V141.49H171.809V148.425ZM189.369 146.816H186.249L186.231 145.516H188.78C189.284 145.516 189.703 145.466 190.037 145.366C190.377 145.267 190.632 145.117 190.802 144.918C190.972 144.719 191.057 144.473 191.057 144.18C191.057 143.951 191.007 143.752 190.907 143.582C190.813 143.406 190.67 143.263 190.477 143.151C190.283 143.034 190.043 142.949 189.756 142.896C189.475 142.838 189.144 142.809 188.763 142.809H186.68V151H185.054V141.49H188.763C189.366 141.49 189.908 141.543 190.389 141.648C190.875 141.754 191.288 141.915 191.628 142.132C191.974 142.343 192.237 142.612 192.419 142.94C192.601 143.269 192.691 143.655 192.691 144.101C192.691 144.388 192.633 144.66 192.516 144.918C192.398 145.176 192.226 145.404 191.997 145.604C191.769 145.803 191.487 145.967 191.153 146.096C190.819 146.219 190.436 146.298 190.002 146.333L189.369 146.816ZM189.369 151H185.66L186.469 149.682H189.369C189.82 149.682 190.195 149.626 190.494 149.515C190.793 149.397 191.016 149.233 191.162 149.022C191.314 148.806 191.391 148.548 191.391 148.249C191.391 147.95 191.314 147.695 191.162 147.484C191.016 147.268 190.793 147.104 190.494 146.992C190.195 146.875 189.82 146.816 189.369 146.816H186.899L186.917 145.516H190.002L190.591 146.008C191.112 146.049 191.555 146.178 191.918 146.395C192.281 146.611 192.557 146.887 192.744 147.221C192.932 147.549 193.025 147.906 193.025 148.293C193.025 148.738 192.94 149.131 192.771 149.471C192.606 149.811 192.366 150.095 192.05 150.323C191.733 150.546 191.35 150.716 190.898 150.833C190.447 150.944 189.938 151 189.369 151ZM196.972 141.49V151H195.337V141.49H196.972ZM195.214 138.968C195.214 138.704 195.293 138.481 195.451 138.3C195.615 138.118 195.855 138.027 196.172 138.027C196.482 138.027 196.72 138.118 196.884 138.3C197.054 138.481 197.139 138.704 197.139 138.968C197.139 139.22 197.054 139.437 196.884 139.618C196.72 139.794 196.482 139.882 196.172 139.882C195.855 139.882 195.615 139.794 195.451 139.618C195.293 139.437 195.214 139.22 195.214 138.968ZM201.296 141.49H202.922L202.781 145.05C202.746 145.952 202.644 146.731 202.474 147.388C202.304 148.044 202.087 148.604 201.823 149.066C201.56 149.523 201.264 149.907 200.936 150.218C200.613 150.528 200.279 150.789 199.934 151H199.125L199.169 149.673L199.503 149.664C199.696 149.436 199.884 149.201 200.065 148.961C200.247 148.715 200.414 148.425 200.566 148.091C200.719 147.751 200.845 147.338 200.944 146.852C201.05 146.359 201.117 145.759 201.146 145.05L201.296 141.49ZM201.7 141.49H207.422V151H205.796V142.993H201.7V141.49ZM198.756 149.664H208.644V153.804H207.018V151H200.382V153.804H198.747L198.756 149.664ZM216.791 144.909L215.49 144.575L216.132 138.203H222.697V139.706H217.512L217.125 143.187C217.359 143.052 217.655 142.926 218.013 142.809C218.376 142.691 218.792 142.633 219.261 142.633C219.853 142.633 220.383 142.735 220.852 142.94C221.32 143.14 221.719 143.427 222.047 143.802C222.381 144.177 222.636 144.628 222.812 145.155C222.987 145.683 223.075 146.271 223.075 146.922C223.075 147.537 222.99 148.103 222.82 148.618C222.656 149.134 222.407 149.585 222.073 149.972C221.739 150.353 221.317 150.648 220.808 150.859C220.304 151.07 219.709 151.176 219.023 151.176C218.508 151.176 218.019 151.105 217.556 150.965C217.099 150.818 216.688 150.599 216.325 150.306C215.968 150.007 215.675 149.638 215.446 149.198C215.224 148.753 215.083 148.231 215.024 147.634H216.571C216.642 148.114 216.782 148.519 216.993 148.847C217.204 149.175 217.479 149.424 217.819 149.594C218.165 149.758 218.566 149.84 219.023 149.84C219.41 149.84 219.753 149.772 220.052 149.638C220.351 149.503 220.603 149.31 220.808 149.058C221.013 148.806 221.168 148.501 221.273 148.144C221.385 147.786 221.44 147.385 221.44 146.939C221.44 146.535 221.385 146.16 221.273 145.814C221.162 145.469 220.995 145.167 220.772 144.909C220.556 144.651 220.289 144.452 219.973 144.312C219.656 144.165 219.293 144.092 218.883 144.092C218.338 144.092 217.925 144.165 217.644 144.312C217.368 144.458 217.084 144.657 216.791 144.909ZM231.126 143.318V154.656H229.491V141.49H230.985L231.126 143.318ZM237.533 146.166V146.351C237.533 147.042 237.451 147.684 237.287 148.275C237.123 148.861 236.883 149.371 236.566 149.805C236.256 150.238 235.872 150.575 235.415 150.815C234.958 151.056 234.434 151.176 233.842 151.176C233.238 151.176 232.705 151.076 232.242 150.877C231.779 150.678 231.387 150.388 231.064 150.007C230.742 149.626 230.484 149.169 230.291 148.636C230.104 148.103 229.975 147.502 229.904 146.834V145.85C229.975 145.146 230.106 144.517 230.3 143.96C230.493 143.403 230.748 142.929 231.064 142.536C231.387 142.138 231.776 141.836 232.233 141.631C232.69 141.42 233.218 141.314 233.815 141.314C234.413 141.314 234.943 141.432 235.406 141.666C235.869 141.895 236.259 142.223 236.575 142.65C236.892 143.078 237.129 143.591 237.287 144.188C237.451 144.78 237.533 145.439 237.533 146.166ZM235.898 146.351V146.166C235.898 145.691 235.849 145.246 235.749 144.83C235.649 144.408 235.494 144.039 235.283 143.723C235.078 143.4 234.814 143.148 234.492 142.967C234.17 142.779 233.786 142.686 233.341 142.686C232.931 142.686 232.573 142.756 232.269 142.896C231.97 143.037 231.715 143.228 231.504 143.468C231.293 143.702 231.12 143.972 230.985 144.276C230.856 144.575 230.76 144.886 230.695 145.208V147.484C230.812 147.895 230.977 148.281 231.188 148.645C231.398 149.002 231.68 149.292 232.031 149.515C232.383 149.731 232.825 149.84 233.358 149.84C233.798 149.84 234.176 149.749 234.492 149.567C234.814 149.38 235.078 149.125 235.283 148.803C235.494 148.48 235.649 148.111 235.749 147.695C235.849 147.273 235.898 146.825 235.898 146.351ZM239.177 146.351V146.148C239.177 145.463 239.276 144.827 239.476 144.241C239.675 143.649 239.962 143.137 240.337 142.703C240.712 142.264 241.166 141.924 241.699 141.684C242.232 141.438 242.83 141.314 243.492 141.314C244.16 141.314 244.761 141.438 245.294 141.684C245.833 141.924 246.29 142.264 246.665 142.703C247.046 143.137 247.336 143.649 247.535 144.241C247.734 144.827 247.834 145.463 247.834 146.148V146.351C247.834 147.036 247.734 147.672 247.535 148.258C247.336 148.844 247.046 149.356 246.665 149.796C246.29 150.229 245.836 150.569 245.303 150.815C244.775 151.056 244.178 151.176 243.51 151.176C242.842 151.176 242.241 151.056 241.708 150.815C241.175 150.569 240.718 150.229 240.337 149.796C239.962 149.356 239.675 148.844 239.476 148.258C239.276 147.672 239.177 147.036 239.177 146.351ZM240.803 146.148V146.351C240.803 146.825 240.858 147.273 240.97 147.695C241.081 148.111 241.248 148.48 241.471 148.803C241.699 149.125 241.983 149.38 242.323 149.567C242.663 149.749 243.059 149.84 243.51 149.84C243.955 149.84 244.345 149.749 244.679 149.567C245.019 149.38 245.3 149.125 245.522 148.803C245.745 148.48 245.912 148.111 246.023 147.695C246.141 147.273 246.199 146.825 246.199 146.351V146.148C246.199 145.68 246.141 145.237 246.023 144.821C245.912 144.399 245.742 144.027 245.514 143.705C245.291 143.377 245.01 143.119 244.67 142.932C244.336 142.744 243.943 142.65 243.492 142.65C243.047 142.65 242.654 142.744 242.314 142.932C241.98 143.119 241.699 143.377 241.471 143.705C241.248 144.027 241.081 144.399 240.97 144.821C240.858 145.237 240.803 145.68 240.803 146.148ZM251.64 141.49V151H250.014V141.49H251.64ZM257.88 141.49L253.371 146.939H251.095L250.849 145.516H252.712L255.902 141.49H257.88ZM256.131 151L252.633 146.693L253.679 145.516L258.196 151H256.131ZM261.378 141.49V151H259.743V141.49H261.378ZM259.62 138.968C259.62 138.704 259.699 138.481 259.857 138.3C260.021 138.118 260.262 138.027 260.578 138.027C260.889 138.027 261.126 138.118 261.29 138.3C261.46 138.481 261.545 138.704 261.545 138.968C261.545 139.22 261.46 139.437 261.29 139.618C261.126 139.794 260.889 139.882 260.578 139.882C260.262 139.882 260.021 139.794 259.857 139.618C259.699 139.437 259.62 139.22 259.62 138.968ZM268.453 146.816H265.333L265.315 145.516H267.864C268.368 145.516 268.787 145.466 269.121 145.366C269.461 145.267 269.716 145.117 269.886 144.918C270.056 144.719 270.141 144.473 270.141 144.18C270.141 143.951 270.091 143.752 269.991 143.582C269.897 143.406 269.754 143.263 269.561 143.151C269.367 143.034 269.127 142.949 268.84 142.896C268.559 142.838 268.228 142.809 267.847 142.809H265.764V151H264.138V141.49H267.847C268.45 141.49 268.992 141.543 269.473 141.648C269.959 141.754 270.372 141.915 270.712 142.132C271.058 142.343 271.321 142.612 271.503 142.94C271.685 143.269 271.775 143.655 271.775 144.101C271.775 144.388 271.717 144.66 271.6 144.918C271.482 145.176 271.31 145.404 271.081 145.604C270.853 145.803 270.571 145.967 270.237 146.096C269.903 146.219 269.52 146.298 269.086 146.333L268.453 146.816ZM268.453 151H264.744L265.553 149.682H268.453C268.904 149.682 269.279 149.626 269.578 149.515C269.877 149.397 270.1 149.233 270.246 149.022C270.398 148.806 270.475 148.548 270.475 148.249C270.475 147.95 270.398 147.695 270.246 147.484C270.1 147.268 269.877 147.104 269.578 146.992C269.279 146.875 268.904 146.816 268.453 146.816H265.983L266.001 145.516H269.086L269.675 146.008C270.196 146.049 270.639 146.178 271.002 146.395C271.365 146.611 271.641 146.887 271.828 147.221C272.016 147.549 272.109 147.906 272.109 148.293C272.109 148.738 272.024 149.131 271.854 149.471C271.69 149.811 271.45 150.095 271.134 150.323C270.817 150.546 270.434 150.716 269.982 150.833C269.531 150.944 269.021 151 268.453 151Z" fill="black"/>
</g>
<defs>
<filter id="filter0_d_64_231" x="0" y="0" width="324" height="189" filterUnits="userSpaceOnUse" color-interpolation-filters="sRGB">
<feFlood flood-opacity="0" result="BackgroundImageFix"/>
<feColorMatrix in="SourceAlpha" type="matrix" values="0 0 0 0 0 0 0 0 0 0 0 0 0 0 0 0 0 0 127 0" result="hardAlpha"/>
<feOffset dy="4"/>
<feGaussianBlur stdDeviation="2"/>
<feComposite in2="hardAlpha" operator="out"/>
<feColorMatrix type="matrix" values="0 0 0 0 0.657708 0 0 0 0 0.778207 0 0 0 0 0.9625 0 0 0 0.38 0"/>
<feBlend mode="normal" in2="BackgroundImageFix" result="effect1_dropShadow_64_231"/>
<feBlend mode="normal" in="SourceGraphic" in2="effect1_dropShadow_64_231" result="shape"/>
</filter>
</defs>
</svg>
